<?xml version="1.0" encoding="UTF-8" ?>
<!DOCTYPE svg PUBLIC "-//W3C//DTD SVG 1.1//EN" "http://www.w3.org/Graphics/SVG/1.1/DTD/svg11.dtd">
<svg width="1000pt" height="507pt" viewBox="0 0 1000 507" version="1.1" xmlns="http://www.w3.org/2000/svg">
<g id="#000000ff">
<path fill="#000000" opacity="1.00" d=" M 434.07 42.11 C 445.50 32.72 461.18 30.82 475.44 32.53 C 486.26 33.77 497.02 38.45 504.05 46.98 C 512.21 56.64 515.03 69.65 515.26 82.02 C 515.29 89.94 515.49 97.86 515.08 105.78 C 504.76 105.81 494.43 105.78 484.11 105.79 C 483.71 96.55 484.37 87.28 483.78 78.04 C 483.41 72.08 480.60 65.55 474.65 63.31 C 468.61 61.10 460.94 61.49 456.08 66.09 C 451.66 70.47 451.02 77.08 450.99 82.97 C 451.01 121.32 450.99 159.68 451.00 198.03 C 451.04 203.63 451.77 209.88 456.03 213.97 C 461.13 218.67 469.18 218.96 475.37 216.42 C 481.27 213.86 483.72 207.11 483.88 201.08 C 484.25 189.67 483.79 178.24 484.06 166.83 C 494.42 166.57 504.79 166.56 515.14 166.83 C 515.49 175.88 515.21 184.95 515.31 194.00 C 515.40 204.66 514.10 215.64 509.20 225.25 C 503.48 236.98 491.62 244.90 478.88 246.94 C 464.98 249.21 449.69 248.25 437.57 240.45 C 428.54 234.75 422.71 225.03 420.14 214.82 C 418.04 207.41 417.94 199.65 417.99 192.00 C 418.03 155.33 417.96 118.66 418.02 82.00 C 418.04 67.42 422.44 51.69 434.07 42.11 Z" />
<path fill="#000000" opacity="1.00" d=" M 567.42 32.68 C 582.32 30.80 598.85 32.37 611.01 41.98 C 623.23 51.67 627.96 67.93 627.97 83.00 C 628.04 115.00 627.98 147.00 628.00 179.00 C 627.94 193.90 629.24 209.60 622.43 223.40 C 616.72 236.30 603.88 244.83 590.18 247.05 C 576.35 249.15 561.33 248.18 549.07 240.88 C 539.04 234.89 532.51 224.27 529.95 213.04 C 527.31 202.57 528.12 191.69 528.00 181.00 C 527.99 149.34 528.01 117.67 527.99 86.00 C 527.91 76.23 529.16 66.25 533.25 57.28 C 537.06 48.71 543.84 41.42 552.33 37.34 C 557.09 35.06 562.20 33.49 567.42 32.68 M 573.35 62.47 C 569.48 63.19 565.94 65.56 563.99 69.00 C 561.16 73.81 561.03 79.57 560.98 85.00 C 561.05 122.69 560.94 160.38 561.04 198.06 C 561.04 204.92 562.91 213.12 569.71 216.32 C 576.11 218.99 584.56 218.79 589.82 213.82 C 594.44 209.18 594.96 202.20 595.01 196.01 C 594.99 158.67 595.00 121.33 595.01 83.99 C 594.95 78.01 594.50 71.37 590.31 66.69 C 586.12 62.02 579.17 61.40 573.35 62.47 Z" />
<path fill="#000000" opacity="1.00" d=" M 149.08 35.10 C 159.67 34.93 170.27 34.89 180.85 35.13 C 185.87 88.80 190.51 142.52 195.62 196.19 C 196.93 190.98 197.08 185.59 197.55 180.27 C 202.04 135.22 206.24 90.15 210.65 45.10 C 210.90 41.71 211.34 38.34 211.82 34.99 C 223.79 35.07 235.75 34.83 247.72 35.13 C 252.30 83.08 256.92 131.03 261.61 178.97 C 262.21 184.72 262.29 190.53 263.41 196.22 C 265.09 189.30 264.87 182.11 265.77 175.08 C 269.82 128.42 274.22 81.80 278.39 35.15 C 287.89 34.87 297.41 34.94 306.91 35.10 C 300.03 105.05 292.74 174.96 285.77 244.89 C 272.13 245.15 258.49 244.93 244.86 245.02 C 243.25 237.08 243.15 228.94 242.06 220.93 C 237.94 181.84 233.84 142.75 229.54 103.68 C 227.98 110.01 227.70 116.56 227.00 123.02 C 222.68 163.64 218.52 204.28 214.01 244.87 C 199.42 245.11 184.82 245.06 170.23 244.89 C 166.92 212.29 163.77 179.66 160.29 147.07 C 156.76 109.72 152.59 72.45 149.08 35.10 Z" />
<path fill="#000000" opacity="1.00" d=" M 317.05 35.05 C 347.02 34.96 376.99 34.97 406.96 35.04 C 407.04 45.01 407.05 54.98 406.95 64.95 C 387.98 65.12 369.01 64.89 350.05 65.05 C 349.97 83.68 349.96 102.32 350.05 120.95 C 365.09 121.14 380.13 120.86 395.17 121.06 C 395.44 131.01 395.43 140.98 395.18 150.94 C 380.14 151.15 365.09 150.86 350.05 151.04 C 349.96 172.35 349.96 193.65 350.05 214.96 C 369.02 215.12 387.99 214.88 406.95 215.04 C 407.04 225.01 407.05 234.98 406.96 244.95 C 376.99 245.03 347.02 245.03 317.05 244.95 C 316.97 174.99 316.97 105.01 317.05 35.05 Z" />
<path fill="#000000" opacity="1.00" d=" M 644.05 35.05 C 660.70 34.91 677.35 35.04 694.00 35.00 C 702.40 34.91 710.94 35.93 718.70 39.30 C 726.04 42.35 732.39 47.72 736.47 54.56 C 742.13 63.96 743.98 75.16 743.99 86.00 C 744.01 116.66 743.99 147.33 744.00 178.00 C 743.82 190.13 744.94 202.59 741.28 214.36 C 738.46 224.43 732.03 233.72 722.71 238.73 C 714.30 243.43 704.53 245.08 695.00 245.00 C 678.01 244.97 661.03 245.07 644.05 244.95 C 643.97 174.99 643.97 105.01 644.05 35.05 M 677.05 65.05 C 676.97 115.02 676.97 164.98 677.04 214.95 C 682.04 215.01 687.03 215.09 692.03 215.03 C 696.87 215.00 702.32 214.59 705.92 210.92 C 710.56 206.25 710.95 199.21 711.01 193.01 C 710.97 156.99 711.05 120.96 710.97 84.94 C 711.08 77.62 708.81 68.48 700.92 66.05 C 693.13 64.09 684.98 65.26 677.05 65.05 Z" />
<path fill="#000000" opacity="1.00" d=" M 759.05 35.04 C 789.01 34.97 818.99 34.96 848.96 35.05 C 849.04 45.02 849.05 54.98 848.96 64.95 C 829.99 65.12 811.02 64.88 792.05 65.04 C 791.96 83.68 791.96 102.32 792.05 120.95 C 807.09 121.13 822.14 120.85 837.18 121.06 C 837.43 131.02 837.43 140.99 837.18 150.94 C 822.14 151.14 807.09 150.87 792.05 151.05 C 791.96 172.35 791.97 193.65 792.05 214.95 C 811.01 215.12 829.98 214.88 848.95 215.05 C 849.05 225.01 849.04 234.99 848.96 244.95 C 818.99 245.03 789.02 245.03 759.05 244.95 C 758.97 174.99 758.97 105.01 759.05 35.04 Z" />
<path fill="#000000" opacity="1.00" d=" M 299.40 250.49 C 316.01 248.73 334.46 251.13 347.33 262.67 C 359.92 273.96 364.23 291.64 364.00 308.00 C 363.98 348.67 364.04 389.34 363.97 430.01 C 363.91 445.50 359.54 462.01 347.86 472.85 C 337.75 482.30 323.56 485.92 310.02 486.01 C 295.14 486.34 279.13 482.54 268.53 471.48 C 257.50 460.38 253.83 444.16 253.72 428.99 C 253.70 388.33 253.69 347.67 253.72 307.02 C 253.85 292.51 257.12 277.12 267.09 266.06 C 275.19 256.72 287.32 251.82 299.40 250.49 M 304.31 283.36 C 300.14 284.02 296.12 286.20 293.80 289.80 C 290.26 295.14 290.02 301.80 289.98 308.00 C 290.05 349.02 289.94 390.04 290.03 431.06 C 290.05 438.65 292.08 447.85 299.73 451.25 C 306.95 454.16 316.39 453.89 322.25 448.26 C 327.63 442.64 327.85 434.31 327.74 427.00 C 327.67 386.31 327.72 345.62 327.72 304.93 C 327.66 298.88 326.62 292.27 322.25 287.75 C 317.64 283.10 310.48 282.36 304.31 283.36 Z" />
<path fill="#000000" opacity="1.00" d=" M 662.41 250.50 C 678.79 248.76 696.92 251.05 709.80 262.20 C 722.23 272.97 726.93 290.04 726.97 305.99 C 727.04 338.66 726.98 371.33 727.00 404.00 C 726.90 414.36 727.24 424.74 726.78 435.10 C 725.91 449.39 720.90 464.22 709.80 473.81 C 699.22 483.03 684.73 486.21 671.00 486.01 C 656.99 486.00 642.14 482.18 632.02 471.97 C 620.38 460.65 616.69 443.71 616.71 428.00 C 616.73 387.34 616.66 346.68 616.74 306.02 C 616.95 290.48 621.17 273.86 633.03 263.06 C 640.95 255.55 651.71 251.73 662.41 250.50 M 667.31 283.36 C 663.14 284.02 659.11 286.20 656.80 289.80 C 653.45 294.84 653.05 301.12 652.99 306.99 C 653.01 348.00 652.98 389.02 653.01 430.03 C 653.05 437.27 654.25 445.84 660.80 450.18 C 667.02 453.89 675.28 453.97 681.76 450.85 C 688.51 447.33 690.63 439.12 690.69 432.06 C 690.73 389.68 690.68 347.31 690.72 304.93 C 690.66 298.88 689.62 292.27 685.25 287.74 C 680.63 283.10 673.48 282.36 667.31 283.36 Z" />
<path fill="#000000" opacity="1.00" d=" M 150.85 253.02 C 173.90 252.79 196.95 252.99 220.00 252.92 C 228.89 253.03 237.79 252.67 246.68 253.15 C 246.59 264.03 246.60 274.91 246.68 285.79 C 226.81 286.19 206.93 285.72 187.05 286.00 C 186.95 307.32 186.97 328.64 187.04 349.95 C 202.61 350.17 218.18 349.78 233.74 350.12 C 233.71 361.04 233.70 371.96 233.74 382.88 C 218.18 383.22 202.61 382.83 187.05 383.05 C 186.89 416.35 187.10 449.65 186.95 482.96 C 174.92 483.03 162.88 483.06 150.85 482.94 C 150.52 444.96 150.80 406.98 150.71 369.00 C 150.80 330.34 150.51 291.67 150.85 253.02 Z" />
<path fill="#000000" opacity="1.00" d=" M 381.85 253.01 C 399.89 252.82 417.94 252.93 435.99 252.97 C 449.70 252.99 464.54 255.45 475.02 265.00 C 485.65 274.82 488.86 290.05 488.90 303.99 C 488.84 319.51 490.37 336.23 482.26 350.22 C 478.66 357.06 472.17 361.54 465.54 365.13 C 470.75 367.75 476.26 370.39 479.80 375.22 C 487.40 385.06 488.74 398.01 489.21 410.03 C 489.41 426.36 489.23 442.69 489.30 459.02 C 489.06 467.15 490.43 475.23 492.95 482.94 C 480.68 483.01 468.40 483.14 456.13 482.87 C 454.37 477.44 453.31 471.80 453.22 466.08 C 452.63 446.37 453.36 426.63 452.81 406.92 C 452.39 399.42 450.71 390.40 443.41 386.56 C 435.53 382.78 426.48 384.23 418.04 384.05 C 417.90 417.02 418.10 449.98 417.95 482.95 C 405.92 483.04 393.88 483.06 381.85 482.94 C 381.52 427.63 381.80 372.31 381.71 317.00 C 381.81 295.67 381.51 274.34 381.85 253.01 M 418.05 286.01 C 417.96 307.65 417.97 329.30 418.05 350.95 C 427.08 350.67 437.27 352.68 445.20 347.22 C 452.50 341.59 452.88 331.43 452.70 322.99 C 452.29 313.62 454.01 303.72 450.18 294.84 C 448.31 290.18 443.76 286.95 438.83 286.34 C 431.94 285.52 424.97 285.97 418.05 286.01 Z" />
<path fill="#000000" opacity="1.00" d=" M 492.04 253.10 C 504.91 252.99 517.80 252.78 530.67 253.21 C 537.11 275.73 543.79 298.17 550.33 320.66 C 552.09 326.21 553.12 332.01 555.64 337.30 C 560.23 323.37 563.93 309.16 568.18 295.13 C 572.25 281.17 576.41 267.23 580.35 253.22 C 592.15 252.75 603.97 253.04 615.78 253.07 C 602.65 292.84 589.32 332.54 576.28 372.35 C 574.58 377.79 571.98 383.12 571.98 388.95 C 571.98 420.28 572.06 451.62 571.95 482.95 C 559.92 483.04 547.88 483.05 535.85 482.94 C 535.51 451.28 535.81 419.61 535.71 387.95 C 535.57 382.50 533.13 377.52 531.55 372.41 C 518.39 332.63 505.06 292.91 492.04 253.10 Z" />
<path fill="#000000" opacity="1.00" d=" M 743.05 253.05 C 755.08 252.96 767.12 252.94 779.15 253.06 C 779.50 313.05 779.16 373.06 779.32 433.06 C 779.50 438.51 780.66 444.36 784.56 448.44 C 788.26 452.28 793.91 453.28 799.05 453.01 C 803.66 452.83 808.57 451.29 811.53 447.55 C 815.20 442.91 815.90 436.75 815.99 431.04 C 816.04 371.71 815.93 312.38 816.05 253.05 C 827.68 252.95 839.32 252.96 850.95 253.05 C 851.06 307.03 850.97 361.02 851.00 415.00 C 850.92 423.47 851.32 431.97 850.28 440.40 C 848.82 451.08 845.26 461.84 838.07 470.07 C 828.28 481.55 812.65 485.97 798.02 486.01 C 783.41 486.29 767.72 482.56 757.35 471.64 C 750.49 464.53 746.43 455.09 744.57 445.48 C 742.51 434.78 743.05 423.84 743.00 413.00 C 743.03 359.69 742.93 306.37 743.05 253.05 Z" />
</g>
</svg>
