<?xml version="1.0" encoding="utf-8"?>
<!-- Generator: Adobe Illustrator 25.1.0, SVG Export Plug-In . SVG Version: 6.00 Build 0)  -->
<svg version="1.1" id="Capa_1" xmlns="http://www.w3.org/2000/svg" xmlns:xlink="http://www.w3.org/1999/xlink" x="0px" y="0px"
	 viewBox="0 0 489 624" style="enable-background:new 0 0 489 624;" xml:space="preserve">
<style type="text/css">
	.st0{fill-rule:evenodd;clip-rule:evenodd;}
</style>
<path class="st0" d="M210.5,33c4.5-11.9,6.8-17.9,10.7-22.2c3.4-3.9,7.8-6.9,12.6-8.7C239.2,0,245.6,0,258.3,0h179.5
	c17.9,0,26.9,0,33.7,3.5c6,3.1,10.9,8,14,14c3.5,6.8,3.5,15.8,3.5,33.7v521.6c0,17.9,0,26.9-3.5,33.7c-3.1,6-8,10.9-14,14
	c-6.8,3.5-15.8,3.5-33.7,3.5H60.2c-24.9,0-37.4,0-45.4-5.2c-7-4.6-11.9-11.7-13.7-19.9c-2.1-9.3,2.4-21,11.2-44.3L210.5,33z"/>
</svg>
